<?xml version="1.0" encoding="utf-8"?>
<!-- Generator: Adobe Illustrator 17.0.0, SVG Export Plug-In . SVG Version: 6.00 Build 0)  -->
<!DOCTYPE svg PUBLIC "-//W3C//DTD SVG 1.1//EN" "http://www.w3.org/Graphics/SVG/1.1/DTD/svg11.dtd">
<svg version="1.1" id="Layer_1" xmlns="http://www.w3.org/2000/svg" xmlns:xlink="http://www.w3.org/1999/xlink" x="0px" y="0px"
	 width="526px" height="421.087px" viewBox="0 0 526 421.087" enable-background="new 0 0 526 421.087" xml:space="preserve">
<g>
	<g>
		<path d="M237.58,223.938c1.659,0,3.132-0.193,4.416-0.58c1.283-0.387,2.404-0.932,3.358-1.637c0.955-0.704,1.751-1.551,2.388-2.54
			c0.635-0.989,1.124-2.085,1.465-3.29c0.228-0.751,0.387-1.586,0.478-2.507c0.091-0.92,0.137-1.813,0.137-2.676v-28.302h5.558
			v28.166c0,1.069-0.057,2.183-0.17,3.342c-0.115,1.159-0.296,2.239-0.546,3.239c-0.431,1.683-1.079,3.24-1.942,4.672
			c-0.864,1.432-1.99,2.672-3.377,3.717c-1.387,1.046-3.052,1.864-4.996,2.455c-1.942,0.591-4.222,0.887-6.836,0.887
			c-2.501,0-4.693-0.273-6.58-0.818c-1.888-0.546-3.507-1.302-4.859-2.268c-1.353-0.966-2.461-2.114-3.326-3.444
			c-0.865-1.33-1.535-2.779-2.011-4.348c-0.342-1.136-0.586-2.352-0.734-3.648c-0.148-1.296-0.221-2.558-0.221-3.785v-28.166h5.558
			v28.302c0,1.023,0.073,2.074,0.221,3.154c0.148,1.079,0.381,2.063,0.699,2.949c0.796,2.205,2.121,3.944,3.972,5.217
			C232.085,223.302,234.533,223.938,237.58,223.938z"/>
		<path d="M237.512,230.521c-2.64,0-5.007-0.297-7.035-0.883c-2.059-0.596-3.861-1.44-5.356-2.509
			c-1.513-1.08-2.773-2.386-3.747-3.884c-0.945-1.456-1.688-3.059-2.205-4.765c-0.367-1.218-0.634-2.542-0.794-3.938
			c-0.153-1.35-0.231-2.686-0.231-3.972v-29.804h8.835v29.941c0,0.949,0.069,1.935,0.206,2.931c0.132,0.964,0.34,1.845,0.617,2.619
			c0.682,1.889,1.781,3.336,3.359,4.421c1.565,1.076,3.726,1.621,6.42,1.621c1.491,0,2.818-0.171,3.945-0.51
			c1.1-0.331,2.06-0.797,2.854-1.385c0.791-0.583,1.458-1.292,1.984-2.11c0.545-0.848,0.972-1.806,1.266-2.849
			c0.206-0.679,0.346-1.416,0.424-2.22c0.086-0.875,0.13-1.721,0.13-2.518v-29.941h8.835v29.804c0,1.106-0.06,2.284-0.178,3.5
			c-0.123,1.242-0.321,2.411-0.588,3.479c-0.47,1.835-1.186,3.555-2.129,5.12c-0.97,1.607-2.246,3.013-3.793,4.18
			c-1.533,1.156-3.386,2.07-5.506,2.714C242.734,230.199,240.274,230.521,237.512,230.521z M221.42,184.044v26.527
			c0,1.163,0.07,2.374,0.21,3.6c0.138,1.2,0.365,2.332,0.675,3.36c0.428,1.409,1.039,2.731,1.816,3.928
			c0.749,1.151,1.726,2.162,2.904,3.002c1.193,0.854,2.661,1.536,4.361,2.028c1.731,0.5,3.793,0.753,6.125,0.753
			c2.439,0,4.579-0.274,6.36-0.816c1.751-0.532,3.26-1.271,4.486-2.195c1.212-0.914,2.207-2.009,2.959-3.255
			c0.778-1.291,1.37-2.715,1.759-4.231c0.226-0.905,0.396-1.916,0.503-2.995c0.107-1.107,0.162-2.179,0.162-3.18v-26.527h-2.28
			v26.664c0,0.904-0.049,1.858-0.146,2.838c-0.1,1.016-0.281,1.966-0.54,2.821c-0.374,1.324-0.935,2.58-1.655,3.701
			c-0.743,1.154-1.683,2.154-2.793,2.973c-1.097,0.811-2.396,1.446-3.857,1.887c-1.434,0.431-3.078,0.649-4.89,0.649
			c-3.369,0-6.154-0.74-8.276-2.198c-2.133-1.466-3.676-3.489-4.586-6.012c-0.355-0.991-0.618-2.095-0.78-3.284
			c-0.157-1.142-0.237-2.278-0.237-3.376v-26.664H221.42z"/>
	</g>
	<g>
		<path d="M262.2,228.03l18.583-45.624h4.808l18.584,45.624h-6.036l-5.448-13.742h-19.076l-5.448,13.742H262.2z M283.136,189.499
			c-2.035,5.678-3.979,10.839-5.832,15.481l-1.705,4.296h15.122l-1.729-4.292c-1.872-4.725-3.778-9.887-5.719-15.485H283.136z"/>
		<path d="M306.612,229.669h-9.586l-5.447-13.742h-16.851l-5.448,13.742h-9.517l19.918-48.902h7.011L306.612,229.669z
			 M299.253,226.392h2.486l-17.25-42.347h-2.604l-17.248,42.347h2.417l5.448-13.742h21.304L299.253,226.392z M293.146,210.914
			h-19.96l2.595-6.54c1.843-4.616,3.798-9.806,5.812-15.429l0.39-1.086h2.457l0.382,1.102c1.931,5.57,3.847,10.757,5.694,15.417
			L293.146,210.914z M278.013,207.637h10.282l-0.822-2.042c-1.401-3.533-2.838-7.359-4.29-11.419
			c-1.5,4.089-2.96,7.913-4.356,11.411L278.013,207.637z"/>
	</g>
	<g>
		<path d="M348.13,205.013c0,2.66-0.33,5.161-0.989,7.502c-0.661,2.341-1.654,4.45-2.984,6.325c-1.331,1.875-2.99,3.495-4.978,4.859
			c-1.99,1.364-4.315,2.421-6.973,3.171c-1.524,0.431-3.171,0.733-4.945,0.904c-1.774,0.17-3.694,0.256-5.762,0.256h-10.333v-45.624
			h10.435c2.068,0,3.99,0.085,5.762,0.256c1.774,0.17,3.421,0.472,4.945,0.904c2.66,0.751,4.983,1.797,6.973,3.137
			c1.988,1.342,3.636,2.927,4.945,4.757c1.306,1.83,2.285,3.887,2.933,6.172C347.805,199.916,348.13,202.377,348.13,205.013z
			 M342.605,205.013c0-4.387-0.968-7.945-2.902-10.673c-1.934-2.727-4.711-4.659-8.328-5.797c-1.382-0.431-2.925-0.727-4.63-0.886
			c-1.705-0.159-3.628-0.239-5.77-0.239h-4.251v35.599h4.251c2.141,0,4.065-0.08,5.77-0.239c1.705-0.158,3.248-0.455,4.63-0.886
			c3.617-1.137,6.394-3.126,8.328-5.968C341.637,213.084,342.605,209.447,342.605,205.013z"/>
		<path d="M321.499,229.669h-11.972v-48.902h12.073c2.108,0,4.1,0.088,5.918,0.263c1.86,0.179,3.622,0.501,5.235,0.958
			c2.812,0.793,5.316,1.922,7.442,3.355c2.143,1.445,3.946,3.182,5.362,5.163c1.413,1.981,2.481,4.228,3.176,6.678
			c0.687,2.424,1.034,5.058,1.034,7.829c0,2.797-0.354,5.471-1.051,7.946c-0.709,2.515-1.794,4.812-3.224,6.829
			c-1.438,2.026-3.251,3.796-5.389,5.262c-2.127,1.458-4.635,2.601-7.454,3.397c-1.61,0.457-3.372,0.779-5.234,0.958
			C325.599,229.58,323.607,229.669,321.499,229.669z M312.805,226.392h8.694c2.004,0,3.89-0.083,5.605-0.248
			c1.666-0.16,3.232-0.446,4.655-0.849c2.477-0.699,4.66-1.69,6.492-2.946c1.818-1.247,3.355-2.746,4.569-4.456
			c1.212-1.71,2.135-3.669,2.742-5.822c0.615-2.186,0.928-4.561,0.928-7.057c0-2.469-0.306-4.803-0.909-6.936
			c-0.592-2.087-1.497-3.994-2.69-5.667c-1.188-1.661-2.711-3.125-4.527-4.35c-1.836-1.238-4.024-2.22-6.502-2.918
			c-1.426-0.404-2.992-0.69-4.656-0.85c-1.715-0.165-3.601-0.248-5.605-0.248h-8.796V226.392z M320.976,224.656h-5.89V185.78h5.89
			c2.182,0,4.174,0.083,5.922,0.246c1.811,0.169,3.481,0.49,4.966,0.954c3.953,1.243,7.039,3.4,9.176,6.412
			c2.127,2.999,3.205,6.909,3.205,11.622c0,4.747-1.072,8.729-3.187,11.834c-2.138,3.14-5.23,5.364-9.191,6.608
			c-1.489,0.465-3.161,0.787-4.97,0.955C325.149,224.573,323.157,224.656,320.976,224.656z M318.363,221.379h2.612
			c2.081,0,3.971-0.078,5.617-0.231c1.581-0.147,3.025-0.423,4.294-0.819c3.283-1.032,5.725-2.774,7.462-5.326
			c1.737-2.552,2.618-5.913,2.618-9.99c0-4.02-0.875-7.292-2.601-9.726c-1.737-2.45-4.186-4.145-7.482-5.181
			c-1.264-0.395-2.708-0.67-4.291-0.818c-1.646-0.154-3.536-0.231-5.617-0.231h-2.612V221.379z"/>
	</g>
	<g>
		<path d="M363.576,209.139v18.891h-5.558v-45.624h11.82c1.998,0,3.695,0.074,5.091,0.221c1.396,0.148,2.675,0.381,3.832,0.7
			c3.179,0.864,5.609,2.336,7.289,4.416c1.681,2.08,2.52,4.678,2.52,7.792c0,1.841-0.295,3.49-0.885,4.944
			c-0.592,1.455-1.422,2.717-2.49,3.785c-1.068,1.068-2.347,1.943-3.835,2.625c-1.49,0.682-3.144,1.182-4.963,1.501v0.136
			l13.504,19.505h-5.558l-14.05-18.891H363.576z M363.576,187.418v16.708h5.49c1.705,0,3.16-0.057,4.365-0.17
			c1.205-0.113,2.285-0.318,3.24-0.614c1.931-0.591,3.42-1.535,4.466-2.83c1.046-1.296,1.57-2.989,1.57-5.081
			c-0.024-1.954-0.524-3.529-1.501-4.723c-0.978-1.193-2.331-2.051-4.058-2.574c-0.818-0.25-1.796-0.431-2.933-0.545
			c-1.137-0.114-2.579-0.17-4.33-0.17H363.576z"/>
		<path d="M393.028,229.669h-9.509l-14.05-18.891h-4.255v18.891h-8.835v-48.902h13.458c2.041,0,3.812,0.078,5.264,0.23
			c1.481,0.158,2.859,0.41,4.095,0.749c3.499,0.951,6.235,2.623,8.128,4.967c1.914,2.367,2.885,5.335,2.885,8.821
			c0,2.046-0.339,3.917-1.007,5.561c-0.672,1.654-1.631,3.109-2.849,4.327c-1.2,1.201-2.651,2.195-4.312,2.956
			c-0.937,0.429-1.939,0.793-2.998,1.09L393.028,229.669z M385.166,226.392h1.608l-12.016-17.354v-2.024l1.355-0.237
			c1.674-0.293,3.209-0.756,4.562-1.376c1.305-0.598,2.436-1.369,3.36-2.294c0.906-0.907,1.623-1.998,2.13-3.244
			c0.508-1.25,0.765-2.706,0.765-4.327c0-2.755-0.705-4.967-2.156-6.761c-1.451-1.797-3.619-3.098-6.443-3.865
			c-1.069-0.294-2.271-0.513-3.575-0.651c-1.337-0.141-2.992-0.212-4.919-0.212h-10.181v42.347h2.28V207.5h9.179L385.166,226.392z
			 M369.065,205.765h-7.128V185.78h7.946c1.799,0,3.311,0.06,4.494,0.179c1.239,0.124,2.332,0.329,3.248,0.609
			c2.033,0.616,3.665,1.661,4.847,3.103c1.214,1.482,1.844,3.414,1.873,5.741c0,2.485-0.65,4.541-1.934,6.131
			c-1.252,1.55-3.022,2.683-5.263,3.367c-1.052,0.327-2.254,0.556-3.566,0.678C372.336,205.705,370.815,205.765,369.065,205.765z
			 M365.215,202.488h3.851c1.647,0,3.064-0.055,4.211-0.163c1.088-0.102,2.066-0.286,2.909-0.547
			c1.608-0.492,2.844-1.263,3.677-2.294c0.812-1.005,1.206-2.331,1.206-4.051c-0.02-1.567-0.39-2.78-1.131-3.685
			c-0.773-0.944-1.842-1.612-3.266-2.044c-0.714-0.218-1.595-0.38-2.62-0.483c-1.076-0.108-2.479-0.162-4.168-0.162h-4.669V202.488z
			"/>
	</g>
	<g>
		<path d="M440.128,205.252c0,3.456-0.497,6.627-1.489,9.513c-0.992,2.887-2.414,5.376-4.264,7.468
			c-1.848,2.092-4.076,3.722-6.68,4.893c-2.605,1.17-5.52,1.756-8.744,1.756c-3.339,0-6.325-0.586-8.965-1.756
			c-2.638-1.171-4.87-2.801-6.698-4.893c-1.826-2.091-3.224-4.58-4.194-7.468c-0.97-2.886-1.455-6.058-1.455-9.513
			c0-3.478,0.501-6.667,1.506-9.565c1.003-2.898,2.423-5.392,4.262-7.484c1.837-2.091,4.065-3.722,6.68-4.893
			c2.616-1.17,5.547-1.756,8.795-1.756c3.316,0,6.287,0.586,8.914,1.756c2.627,1.171,4.854,2.802,6.68,4.893
			c1.828,2.092,3.226,4.586,4.195,7.484C439.643,198.585,440.128,201.774,440.128,205.252z M434.604,205.252
			c0-3.069-0.403-5.774-1.207-8.116c-0.804-2.341-1.914-4.296-3.326-5.865c-1.414-1.568-3.081-2.756-4.999-3.563
			c-1.918-0.806-3.982-1.211-6.188-1.211c-2.205,0-4.268,0.404-6.187,1.211c-1.92,0.807-3.585,1.995-4.999,3.563
			c-1.414,1.569-2.522,3.524-3.327,5.865c-0.804,2.342-1.205,5.047-1.205,8.116c0,3.069,0.408,5.768,1.224,8.098
			c0.815,2.331,1.93,4.28,3.343,5.849c1.412,1.568,3.079,2.75,4.998,3.546c1.92,0.796,3.993,1.194,6.223,1.194
			c2.205,0,4.257-0.398,6.153-1.194c1.896-0.795,3.55-1.977,4.964-3.546c1.412-1.569,2.522-3.518,3.326-5.849
			C434.201,211.02,434.604,208.321,434.604,205.252z"/>
		<path d="M418.952,230.521c-3.551,0-6.79-0.638-9.629-1.897c-2.846-1.263-5.29-3.05-7.268-5.313
			c-1.961-2.245-3.479-4.944-4.514-8.024c-1.021-3.042-1.54-6.418-1.54-10.035c0-3.648,0.537-7.046,1.597-10.102
			c1.067-3.086,2.608-5.788,4.579-8.03c1.985-2.259,4.422-4.044,7.241-5.307c2.817-1.26,6.001-1.899,9.465-1.899
			c3.53,0,6.753,0.639,9.581,1.898c2.834,1.264,5.272,3.051,7.247,5.312c1.961,2.244,3.48,4.95,4.515,8.042
			c1.021,3.054,1.54,6.447,1.54,10.085c0,3.622-0.531,7.002-1.577,10.046c-1.058,3.077-2.601,5.775-4.586,8.021
			c-1.993,2.256-4.429,4.04-7.236,5.302C425.561,229.882,422.394,230.521,418.952,230.521z M418.884,183.192
			c-2.999,0-5.733,0.542-8.126,1.613c-2.387,1.069-4.446,2.576-6.119,4.479c-1.688,1.921-3.016,4.255-3.943,6.938
			c-0.94,2.71-1.416,5.748-1.416,9.029c0,3.261,0.461,6.287,1.369,8.992c0.896,2.669,2.2,4.995,3.875,6.912
			c1.661,1.9,3.723,3.406,6.129,4.473c2.417,1.072,5.21,1.615,8.3,1.615c2.975,0,5.69-0.542,8.071-1.612
			c2.381-1.07,4.441-2.579,6.125-4.483c1.699-1.921,3.024-4.248,3.941-6.916c0.929-2.701,1.399-5.723,1.399-8.981
			c0-3.284-0.461-6.327-1.37-9.045c-0.896-2.679-2.2-5.009-3.875-6.926c-1.66-1.901-3.717-3.407-6.113-4.475
			C424.727,183.735,421.951,183.192,418.884,183.192z M418.953,225.577c-2.435,0-4.74-0.444-6.851-1.319
			c-2.138-0.886-4.018-2.219-5.588-3.963c-1.553-1.723-2.789-3.878-3.673-6.404c-0.873-2.491-1.315-5.397-1.315-8.639
			c0-3.236,0.436-6.146,1.294-8.647c0.875-2.542,2.105-4.705,3.659-6.43c1.571-1.742,3.448-3.08,5.581-3.977
			c2.115-0.888,4.41-1.339,6.823-1.339s4.709,0.451,6.823,1.338c2.135,0.899,4.013,2.237,5.581,3.977
			c1.557,1.729,2.787,3.892,3.658,6.43c0.859,2.502,1.296,5.412,1.296,8.647c0,3.237-0.437,6.142-1.297,8.633
			c-0.871,2.525-2.101,4.682-3.656,6.41c-1.572,1.744-3.438,3.076-5.549,3.96C423.652,225.132,421.369,225.577,418.953,225.577z
			 M418.884,188.136c-1.975,0-3.843,0.364-5.553,1.083c-1.686,0.708-3.172,1.769-4.417,3.15c-1.257,1.395-2.265,3.179-2.994,5.301
			c-0.741,2.157-1.116,4.708-1.116,7.582c0,2.872,0.381,5.414,1.131,7.556c0.74,2.114,1.754,3.895,3.015,5.293
			c1.241,1.379,2.725,2.431,4.408,3.129c1.711,0.71,3.594,1.069,5.596,1.069c1.978,0,3.834-0.358,5.519-1.066
			c1.663-0.697,3.138-1.75,4.383-3.132c1.259-1.398,2.266-3.177,2.993-5.286c0.741-2.147,1.117-4.691,1.117-7.564
			s-0.376-5.424-1.118-7.583c-0.728-2.12-1.734-3.903-2.993-5.302c-1.243-1.379-2.729-2.439-4.417-3.149
			C422.728,188.5,420.859,188.136,418.884,188.136z"/>
	</g>
</g>
<g>
	<rect x="174.301" y="198.675" fill="#0000FF" width="13.882" height="13.939"/>
</g>
<g>
	<polyline fill="#0000FF" points="163.469,231.898 174.301,231.015 163.469,231.015 	"/>
</g>
<g>
	<g>
		<g>
			<path fill="#0000FF" d="M187.521,163.921c0,16.655,0.601,32.98-0.189,49.223c-0.636,13.076,1.817,24.716,8.099,35.594
				c1.437,2.488,2.523,5.226,4.039,8.412c-12.027-4.757-23.458-9.279-36.001-14.24c0-1.991,0-6.185,0-11.011
				c3.53-0.288,6.863-0.56,10.832-0.884c0-17.793,0-35.563,0-54.271c-6.073,0-29.345,0-35.523,0c0-4.685,0-8.421,0-12.822
				C154.75,163.921,170.736,163.921,187.521,163.921z"/>
		</g>
		<g>
			<polyline fill="#0000FF" points="156.5,177.86 138.778,177.86 138.778,176.744 174.301,176.744 174.301,177.86 			"/>
		</g>
	</g>
	<g>
		<path fill="#0000FF" d="M111.01,245.123c0-25.11-0.009-49.624,0.016-74.138c0.002-2.14,0.226-4.28,0.384-7.064
			c4.412,0,8.551,0,13.486,0c0,22.195,0,44.155,0,67.139c9.27,0,17.803,0,26.922,0c0,5.186,0,9.366,0,14.063
			C138.38,245.123,124.968,245.123,111.01,245.123z"/>
	</g>
	<g>
		<polyline fill="#0000FF" points="163.469,242.909 163.469,245.123 199.469,257.149 		"/>
	</g>
</g>
<g>
	<polyline fill="#0000FF" points="174.301,163.921 188.183,163.921 188.183,242.235 174.301,242.235 	"/>
</g>
<g>
	<rect x="111.024" y="163.921" fill="#0000FF" width="13.871" height="8.689"/>
</g>
</svg>
